<svg width="56" height="55" viewBox="0 0 56 55" fill="none" xmlns="http://www.w3.org/2000/svg">
<path d="M30.5454 8.71098C30.5454 10.0462 30.5454 11.3179 30.5454 12.6532C30.5454 12.8439 30.5454 13.0983 30.4213 13.289C30.235 13.6705 29.9246 13.8613 29.49 13.7977C28.9933 13.6705 28.8071 13.3526 28.745 12.8439C28.745 11.6994 28.745 10.5549 28.745 9.41041C28.745 9.21965 28.745 9.0289 28.745 8.77457C25.7029 8.77457 22.7849 8.77457 19.6807 8.77457C19.6807 8.96532 19.6807 9.15607 19.6807 9.34682C19.6807 11.3179 19.6807 13.289 19.6807 15.2601C19.6807 17.104 19.2461 18.7572 18.3148 20.2832C15.459 25.3064 12.6031 30.2659 9.74722 35.289C9.62305 35.4798 9.56097 35.6705 9.37472 35.9884C10.2439 36.1792 10.9889 36.4335 11.796 36.5607C13.5344 36.7514 15.1486 36.2428 16.7007 35.4798C17.5078 35.0983 18.0044 35.1618 18.2528 35.6705C18.5632 36.2428 18.2528 36.6879 17.4457 37.0694C14.3415 38.5954 12.4168 38.7225 8.50554 37.5145C8.38137 37.7052 8.2572 37.896 8.19512 38.0867C6.20842 41.5838 4.22172 45.1445 2.17294 48.6416C1.61419 49.659 1.49002 50.6763 2.04878 51.6936C2.60753 52.711 3.47671 53.1561 4.65631 53.1561C17.5698 53.1561 30.4213 53.1561 43.3348 53.1561C43.5211 53.1561 43.7694 53.1561 43.9556 53.1561C44.4523 53.2197 44.7627 53.474 44.7627 53.9827C44.8248 54.4913 44.5144 54.8092 44.0798 54.9364C43.8936 55 43.7073 55 43.5211 55C30.5454 55 17.5698 55 4.59423 55C2.79379 55 1.42793 54.237 0.558754 52.6474C-0.310426 51.0578 -0.310426 49.4682 0.620838 47.815C6.02217 38.341 11.4235 28.8035 16.8869 19.3295C17.5698 18.1214 17.9423 16.8497 17.9423 15.4509C17.9423 13.2254 17.9423 11 17.9423 8.71098C17.8182 8.6474 17.694 8.58381 17.5698 8.58381C15.5831 7.82081 14.3415 5.84971 14.6519 3.81503C14.9623 1.65318 16.7007 0.0635838 18.8736 0C22.5366 0 26.0754 0 29.6142 0.0635838C31.7871 0.0635838 33.4634 1.65318 33.7738 3.87861C34.0843 5.91329 32.9046 7.88439 30.918 8.58381C30.7938 8.58381 30.6696 8.6474 30.5454 8.71098ZM24.2749 6.99422C26.0754 6.99422 27.8137 6.99422 29.6142 6.99422C29.9867 6.99422 30.4213 6.86705 30.7938 6.6763C31.8492 6.16763 32.3459 4.95954 32.0355 3.81503C31.7871 2.67052 30.7938 1.84393 29.5521 1.78035C28.1862 1.78035 26.7583 1.78035 25.3925 1.78035C23.2816 1.78035 21.2328 1.78035 19.1219 1.78035C17.6319 1.78035 16.5144 2.92486 16.5144 4.38728C16.5144 5.84971 17.6319 6.93064 19.1219 6.99422C20.7982 6.99422 22.5366 6.99422 24.2749 6.99422Z" fill="white"/>
<path d="M43.8935 36.9422C45.5698 38.341 47.2461 39.8034 48.9224 41.2023C50.5986 42.6011 52.2749 44 53.9512 45.3988C56.3104 47.4335 56.745 50.6763 54.9445 52.9017C52.7716 55.5722 48.9224 55.5722 46.8115 52.9017C44.0798 49.7225 41.4723 46.4797 38.8647 43.237C38.6785 43.0462 38.5543 42.8555 38.368 42.6647C31.5388 46.0982 24.337 43.4913 20.8603 37.8323C17.4456 32.3006 18.439 24.9248 23.0332 20.5375C27.6896 16.0867 34.8913 15.7052 39.9822 19.5202C45.1973 23.3988 47.1219 30.7745 43.8935 36.9422ZM32.2217 18.6936C25.5166 18.8208 20.4257 24.0347 20.6119 30.7745C20.7361 37.4508 25.9512 42.5375 32.47 42.4104C39.051 42.2832 43.8315 36.3699 43.7694 30.4566C43.6452 23.9075 38.368 18.5664 32.2217 18.6936ZM39.9822 41.711C39.9822 41.7745 40.0443 41.8381 40.1064 41.9017C42.776 45.2717 45.5077 48.578 48.2394 51.948C48.6119 52.393 49.2328 52.7745 49.8536 52.9653C51.9645 53.7283 54.2616 52.0751 54.3237 49.8497C54.3858 48.5144 53.7029 47.5607 52.7716 46.7341C50.9091 45.1445 48.9845 43.5549 47.1219 41.9653C45.7561 40.8208 44.3902 39.6763 43.0864 38.5318C42.5898 39.104 42.1552 39.6763 41.6585 40.1849C41.0377 40.6936 40.541 41.2023 39.9822 41.711Z" fill="white"/>
<path d="M16.3902 40.5665C17.5077 40.5665 18.439 41.4566 18.439 42.6647C18.439 43.8092 17.5077 44.763 16.3902 44.763C15.2727 44.763 14.3414 43.8092 14.3414 42.6011C14.4035 41.4566 15.2727 40.5665 16.3902 40.5665Z" fill="white"/>
<path d="M31.7871 50.8671C30.6075 50.8671 29.7383 49.9769 29.7383 48.7688C29.7383 47.6243 30.6696 46.6705 31.725 46.6705C32.8426 46.6705 33.8359 47.6243 33.8359 48.7688C33.8359 49.9133 32.9046 50.8671 31.7871 50.8671Z" fill="white"/>
<path d="M17.7561 50.6763C17.7561 49.7861 18.439 49.0867 19.3082 49.0867C20.1774 49.0867 20.8603 49.7861 20.8603 50.6763C20.8603 51.63 20.1774 52.3294 19.2461 52.2659C18.439 52.3294 17.7561 51.5664 17.7561 50.6763Z" fill="white"/>
<path d="M22.4745 30.5202C22.4745 24.9884 26.7583 20.6012 32.1596 20.6647C37.4989 20.6647 41.7827 25.1156 41.7827 30.5202C41.7827 36.052 37.4368 40.5029 32.0355 40.5029C26.7583 40.4393 22.4745 35.9884 22.4745 30.5202ZM40.0443 30.5202C40.0443 26.0694 36.5676 22.4451 32.2217 22.4451C27.7517 22.4451 24.2749 25.9422 24.2128 30.5202C24.2128 35.0347 27.6896 38.659 32.0355 38.659C36.4434 38.659 40.0443 34.9711 40.0443 30.5202Z" fill="white"/>
<path d="M35.2018 30.4567C34.0843 30.4567 33.153 29.5029 33.153 28.3584C33.153 27.2139 34.0843 26.2601 35.2018 26.2601C36.3193 26.2601 37.3127 27.2139 37.2506 28.3584C37.2506 29.5029 36.3193 30.4567 35.2018 30.4567Z" fill="white"/>
<path d="M34.7672 35.2254C34.7672 36.1156 34.0222 36.815 33.2151 36.815C32.3459 36.815 31.663 36.1156 31.663 35.2254C31.663 34.3353 32.3459 33.5723 33.2772 33.6359C34.0842 33.5723 34.7672 34.3353 34.7672 35.2254Z" fill="white"/>
<path d="M28.2483 30.5202C27.3792 30.5202 26.6962 29.7572 26.6962 28.8671C26.6962 27.9769 27.4412 27.2775 28.3104 27.2775C29.1796 27.2775 29.9246 28.0405 29.8625 28.9306C29.8004 29.8844 29.1175 30.5838 28.2483 30.5202Z" fill="white"/>
</svg>
