<svg width="54" height="63" viewBox="0 0 54 63" fill="none" xmlns="http://www.w3.org/2000/svg">
<path d="M27.0002 -1.18041e-06C40.3749 -5.95791e-07 51.9105 10.0666 53.7495 23.4048C55.6721 37.6658 46.5606 50.7523 32.6009 53.7723C32.2665 53.8562 31.9321 53.9401 31.6814 53.9401C30.929 54.024 30.4275 53.6884 30.2603 53.1012C30.0931 52.4301 30.5111 51.9268 31.2634 51.759C33.0188 51.2557 34.8578 50.9201 36.4461 50.249C45.3903 46.2224 50.573 39.4274 51.5761 29.6964C52.9135 16.6937 44.3036 5.20107 31.5142 2.76831C17.8888 0.0838865 4.43058 9.73102 2.50798 23.5726C0.66897 36.6591 8.86092 48.5712 21.6504 51.5912C21.9848 51.6751 22.3191 51.759 22.6535 51.759C23.4058 51.9268 23.8238 52.4301 23.7402 53.1012C23.573 53.7723 23.0714 54.1079 22.3191 53.9401C19.8114 53.4368 17.3036 52.7657 15.0467 51.5073C6.85473 47.229 1.92284 40.6019 0.334605 31.4581C-2.08954 16.7776 8.1086 2.68442 22.7371 0.419439C24.1581 0.251663 25.5792 0.167775 27.0002 -1.18041e-06Z" fill="white"/>
<path d="M45.3901 27.2636C45.3901 35.4847 39.7895 42.8668 31.9319 45.0479C31.096 45.2996 30.5108 45.0479 30.2601 44.3768C30.0929 43.7057 30.5108 43.2024 31.3467 42.9507C38.1176 40.7696 42.0464 36.2397 43.0495 29.1931C44.2198 20.8042 38.1176 12.5832 29.8421 11.241C20.8978 9.81489 12.9567 15.3515 11.2012 24.2437C9.613 32.213 14.4613 40.3502 22.3189 42.699C22.4861 42.7829 22.6532 42.7829 22.8204 42.8668C23.5728 43.1185 23.9907 43.7057 23.7399 44.2929C23.5728 44.8801 22.904 45.2157 22.2353 44.964C21.2322 44.6285 20.2291 44.2929 19.3096 43.8735C12.2043 40.6857 7.77399 32.8002 8.77709 25.1664C9.86378 16.8615 15.8824 10.4021 23.8235 8.97601C34.356 7.13047 44.1362 14.5965 45.3065 25.3342C45.3901 26.0053 45.3901 26.5925 45.3901 27.2636Z" fill="white"/>
<path d="M27.0836 59.1411C25.9133 60.3156 24.9102 61.3222 23.8235 62.4128C23.4056 62.8322 22.9876 63.1678 22.3189 62.9161C21.7338 62.6644 21.5666 62.1611 21.5666 61.49C21.5666 60.3156 21.483 59.0572 21.5666 57.8828C21.5666 57.3795 21.8173 56.7923 22.1517 56.4567C23.1548 55.3662 24.2415 54.2756 25.3282 53.1851C25.7461 52.8495 25.8297 52.4301 25.8297 51.9268C25.8297 43.8735 25.8297 35.9041 25.8297 27.8508C25.8297 27.6831 25.8297 27.5153 25.8297 27.2636C25.8297 26.5086 26.2477 26.0053 26.9164 26.0053C27.5851 26.0053 28.0031 26.4248 28.0867 27.2636C28.0867 27.4314 28.0867 27.5992 28.0867 27.8508C28.0867 35.8202 28.0867 43.8735 28.0867 51.8429C28.0867 52.4301 28.2539 52.8495 28.6718 53.269C29.7585 54.2756 30.8452 55.3662 31.8483 56.4567C32.1827 56.7923 32.3499 57.3795 32.4334 57.7989C32.517 58.9734 32.4334 60.2317 32.4334 61.49C32.4334 62.0772 32.3499 62.5805 31.7647 62.8322C31.1796 63.0839 30.678 62.8322 30.2601 62.3289C29.257 61.3222 28.1703 60.3156 27.0836 59.1411ZM23.9071 59.1411C24.6594 58.3861 25.3282 57.715 25.9969 57.0439C26.7492 56.2889 27.3344 56.2889 28.0867 57.0439C28.7554 57.715 29.4242 58.3861 30.0929 59.1411C30.1765 59.1411 30.2601 59.0572 30.2601 59.0572C30.1765 58.7217 30.2601 58.2184 30.0093 57.9667C29.0898 56.8761 28.0867 55.9534 27 54.8628C26.0805 55.7856 25.2446 56.7084 24.3251 57.5473C23.9071 57.9667 23.7399 58.3861 23.9071 59.1411Z" fill="white"/>
<path d="M27.0836 17.4487C31.4303 17.4487 35.2755 20.3848 36.4458 24.5792C37.6161 28.7736 35.8607 33.2197 32.2663 35.4847C31.9319 35.6525 31.5139 35.9041 31.1796 35.7363C30.8452 35.6525 30.5108 35.233 30.3437 34.8136C30.1765 34.3103 30.5108 33.8908 30.9288 33.6391C32.517 32.6325 33.6873 31.2903 34.1889 29.4447C35.0248 26.5087 34.4396 23.9081 32.2663 21.8109C30.0929 19.7137 27.418 19.1265 24.4923 20.1332C21.6502 21.1398 19.9783 23.3209 19.644 26.3409C19.3096 29.3608 20.4799 31.7097 22.904 33.4714C22.9876 33.5553 23.0712 33.5553 23.2384 33.6391C23.9071 34.1425 24.1579 34.7297 23.7399 35.3169C23.4056 35.9041 22.7368 35.988 21.9845 35.5686C20.4799 34.6458 19.3096 33.3875 18.4737 31.7936C15.0464 25.1664 19.7276 17.4487 27.0836 17.4487Z" fill="white"/>
</svg>
