<svg width="45" height="75" viewBox="0 0 45 75" fill="none" xmlns="http://www.w3.org/2000/svg">
<g clip-path="url(#clip0_244_205)">
<path d="M32.5312 75C31.6875 75 30.9375 75 30 75C30 74.7191 30 74.5319 30 74.251C30 70.8802 30 67.5094 30 64.1386C30 63.6704 30.1875 63.1086 30.4687 62.7341C32.625 59.5506 34.7812 56.4607 36.9375 53.2772C39.75 49.2509 41.8125 44.0075 42.1875 39.9813C41.4375 39.9813 40.6875 39.9813 39.9375 39.9813C39.75 39.9813 39.4687 40.2622 39.4687 40.4494C38.25 45.5993 35.25 49.8127 32.25 54.0262C31.125 55.5244 29.7187 56.2734 27.75 56.2734C24.1875 56.2734 20.5312 56.2734 16.9687 56.2734C15.4687 56.2734 14.0625 55.8053 13.125 54.588C10.6875 51.4045 8.34374 48.221 6.84374 44.5693C6.28124 43.2584 5.90624 41.9476 5.43749 40.5431C5.34374 40.1685 5.15624 39.9813 4.78124 39.9813C4.12499 39.9813 3.37499 39.9813 2.62499 39.9813C2.99999 42.5094 3.56249 44.8502 4.59374 47.0974C5.62499 49.3446 6.84374 51.4981 8.15624 53.5581C10.125 56.648 12.2812 59.6442 14.3437 62.6405C14.625 63.1086 14.8125 63.7641 14.9062 64.3259C15 67.603 14.9062 70.8802 14.9062 74.1573C14.9062 74.4382 14.9062 74.6255 14.9062 75C14.0625 75 13.3125 75 12.375 75C12.375 74.7191 12.375 74.4382 12.375 74.1573C12.375 71.0674 12.375 67.9775 12.375 64.9813C12.375 64.5131 12.1875 64.045 12 63.6704C9.93749 60.5805 7.78124 57.5843 5.71874 54.4944C2.62499 50 0.749993 44.9438 -6.82846e-06 39.5131C-0.187507 37.9214 0.281243 37.4532 1.78124 37.4532C3.18749 37.4532 4.59374 37.4532 5.99999 37.4532C6.74999 37.4532 7.21874 37.8277 7.49999 38.4832C7.68749 39.1386 7.87499 39.7004 8.06249 40.3558C8.81249 42.8839 9.84374 45.3184 11.3437 47.4719C12.4687 49.1573 13.6875 50.8427 14.8125 52.5281C15.2812 53.1835 15.9375 53.5581 16.7812 53.6517C14.1562 49.3446 14.5312 45.5056 17.7187 42.8839C20.5312 40.5431 24.6562 40.6367 27.4687 43.0712C29.8125 45.1311 31.3125 49.4382 28.125 53.6517C28.9687 53.5581 29.625 53.2772 30 52.7154C32.9062 48.6891 35.9062 44.6629 37.125 39.6067C37.6875 37.3596 37.7812 37.3596 40.125 37.3596C41.25 37.3596 42.375 37.3596 43.5 37.3596C44.625 37.3596 45.0937 37.9214 45 39.045C44.25 44.6629 42.375 49.8127 39.1875 54.4008C37.125 57.397 35.0625 60.3933 33 63.3895C32.7187 63.7641 32.625 64.2322 32.625 64.7004C32.625 67.7903 32.625 70.8802 32.625 73.8764C32.5312 74.3446 32.5312 74.6255 32.5312 75ZM17.5312 48.6891C17.5312 51.4981 19.7812 53.6517 22.5 53.6517C25.2187 53.6517 27.4687 51.4045 27.4687 48.6891C27.4687 45.9738 25.2187 43.633 22.5 43.633C19.6875 43.7266 17.5312 45.9738 17.5312 48.6891Z" fill="white"/>
<path d="M22.5937 12.3595C24 10.8614 25.875 9.92507 28.0312 9.92507C32.4375 9.83143 35.5312 13.3895 34.875 17.7902C34.4062 20.7865 32.9062 23.1273 31.0312 25.3745C28.7812 27.9962 26.1562 30.1498 23.3437 32.1161C22.7812 32.4906 22.2187 32.5842 21.6562 32.1161C18.4687 29.8689 15.5625 27.4344 13.125 24.3445C11.5312 22.2846 10.2187 20.1311 10.0312 17.5093C9.84374 14.9812 10.5 12.7341 12.6562 11.2359C14.9062 9.64417 17.4375 9.55053 19.875 10.6741C20.9062 11.0487 21.6562 11.7977 22.5937 12.3595ZM32.5312 17.0412C32.5312 13.9513 30.4687 12.0786 27.75 12.4532C26.0625 12.6404 24.6562 13.4831 23.8125 15.0749C23.5312 15.6367 23.1562 16.0112 22.5 16.0112C21.8437 16.0112 21.5625 15.6367 21.2812 15.0749C20.625 13.8576 19.5937 13.015 18.2812 12.6404C14.8125 11.6105 11.9062 14.1385 12.6562 17.603C12.8437 18.7266 13.3125 19.8502 13.875 20.8801C15.9375 24.4382 19.0312 26.9663 22.2187 29.4007C22.4062 29.4944 22.6875 29.4944 22.875 29.4007C25.7812 27.2472 28.5 24.9063 30.5625 21.9101C31.6875 20.412 32.4375 18.7266 32.5312 17.0412Z" fill="white"/>
<path d="M11.7187 7.58429C11.1562 8.14609 10.5937 8.70789 10.125 9.17605C9 8.05246 7.875 6.92886 6.75 5.80527C7.21875 5.24347 7.78125 4.68167 8.34375 4.11987C9.46875 5.3371 10.5937 6.4607 11.7187 7.58429Z" fill="white"/>
<path d="M36.6562 4.2135C37.2187 4.7753 37.6875 5.24346 38.25 5.80526C37.125 6.92886 36 8.05245 34.875 9.26968C34.4063 8.80152 33.8438 8.23972 33.2812 7.67792C34.4062 6.46069 35.5312 5.3371 36.6562 4.2135Z" fill="white"/>
<path d="M23.7188 4.96255C22.875 4.96255 22.125 4.96255 21.375 4.96255C21.375 3.37079 21.375 1.68539 21.375 0C22.125 0 22.875 0 23.7188 0C23.7188 1.59176 23.7188 3.27715 23.7188 4.96255Z" fill="white"/>
<path d="M1.3125 19.8502C1.3125 19.0075 1.3125 18.2584 1.3125 17.4157C2.90625 17.4157 4.59375 17.4157 6.1875 17.4157C6.1875 18.1648 6.1875 19.0075 6.1875 19.8502C4.59375 19.8502 3 19.8502 1.3125 19.8502Z" fill="white"/>
<path d="M38.8125 17.5093C40.5 17.5093 42 17.5093 43.6875 17.5093C43.6875 18.352 43.6875 19.1011 43.6875 19.9438C42.0937 19.9438 40.5 19.9438 38.8125 19.9438C38.8125 19.1011 38.8125 18.2584 38.8125 17.5093Z" fill="white"/>
</g>
<defs>
<clipPath id="clip0_244_205">
<rect width="45" height="75" fill="white"/>
</clipPath>
</defs>
</svg>
