<svg width="25" height="22" viewBox="0 0 25 22" fill="none" xmlns="http://www.w3.org/2000/svg">
<path d="M-6.09002e-05 11.3217L-6.10352e-05 8.23394L21.9999 8.23394V11.3217L-6.09002e-05 11.3217Z" fill="white"/>
<path d="M9.26299 0H12.7367V19.5556H9.26299V0Z" fill="white"/>
<path fill-rule="evenodd" clip-rule="evenodd" d="M9.26299 0H15.1811V8.23394H24.4444V13.7661H15.1811V22H9.26299V13.7661H-6.08166e-05L-6.10352e-05 8.23394L9.26299 8.23394V0ZM9.26299 10.6784L2.44438 10.6784V11.3217H9.26299V10.6784ZM11.7074 11.3217V10.6784H12.7367V11.3217L11.7074 11.3217ZM11.7074 13.7661V19.5556H12.7367V13.7661L11.7074 13.7661ZM15.1811 11.3217H21.9999V10.6784L15.1811 10.6784V11.3217ZM12.7367 8.23394H11.7074V2.44444H12.7367V8.23394Z" fill="white"/>
</svg>
