<svg width="40" height="40" viewBox="0 0 40 40" fill="none" xmlns="http://www.w3.org/2000/svg">
<g clip-path="url(#clip0_244_89)">
<path d="M28.7562 7.105L23.5168 6.34375L21.1737 1.59602C20.6959 0.627816 19.3115 0.628362 18.8339 1.59602L16.4908 6.34375L11.2513 7.105C10.1829 7.26024 9.75562 8.57703 10.5284 9.33024L14.3197 13.0259L13.4246 18.2441C13.242 19.3081 14.3623 20.1218 15.3175 19.6195L20.0037 17.1558L24.69 19.6195C25.6374 20.1177 26.7668 19.3164 26.5829 18.2441L25.6879 13.0259L29.4792 9.33024C30.2524 8.57657 29.8241 7.26024 28.7562 7.105Z" fill="#03AFE5"/>
<path d="M9.40898 19.8213H1.30461C0.584141 19.8213 0 20.4054 0 21.1259V37.8254C0 38.5459 0.584141 39.13 1.30461 39.13H9.40898C10.1295 39.13 10.7136 38.5459 10.7136 37.8254V21.1259C10.7136 20.4054 10.1295 19.8213 9.40898 19.8213Z" fill="#03AFE5"/>
<path d="M39.1491 25.4924C37.7368 23.7124 35.1452 23.4537 33.4103 24.9096L27.2296 30.0958C25.2922 30.0958 23.7537 30.0958 21.9814 30.0958L24.7891 27.7399C26.925 25.9477 25.7559 22.3529 22.8454 22.3529H13.3228V37.8775C14.0178 38.4395 14.8884 38.7489 15.7834 38.7489H28.0098C28.9284 38.7489 29.8217 38.4238 30.5255 37.8334L38.5389 31.1098C40.2161 29.7023 40.49 27.1824 39.1491 25.4924Z" fill="#03AFE5"/>
</g>
<defs>
<clipPath id="clip0_244_89">
<rect width="40" height="40" fill="white"/>
</clipPath>
</defs>
</svg>
