<svg width="122" height="122" viewBox="0 0 122 122" fill="none" xmlns="http://www.w3.org/2000/svg">
<rect opacity="0.2" width="4.3444" height="4.3444" fill="#EB753B"/>
<rect opacity="0.2" y="62.5594" width="4.3444" height="4.3444" fill="#EB753B"/>
<rect opacity="0.2" y="31.2797" width="4.3444" height="4.3444" fill="#EB753B"/>
<rect opacity="0.2" y="93.8391" width="4.3444" height="4.3444" fill="#EB753B"/>
<rect opacity="0.2" y="15.6399" width="4.3444" height="4.3444" fill="#EB753B"/>
<rect opacity="0.2" y="78.1992" width="4.3444" height="4.3444" fill="#EB753B"/>
<rect opacity="0.2" y="46.9195" width="4.3444" height="4.3444" fill="#EB753B"/>
<rect opacity="0.2" y="109.479" width="4.3444" height="4.3444" fill="#EB753B"/>
<rect opacity="0.2" y="7.81989" width="4.3444" height="4.3444" fill="#EB753B"/>
<rect opacity="0.2" y="70.3793" width="4.3444" height="4.3444" fill="#EB753B"/>
<rect opacity="0.2" y="39.0996" width="4.3444" height="4.3444" fill="#EB753B"/>
<rect opacity="0.2" y="101.659" width="4.3444" height="4.3444" fill="#EB753B"/>
<rect opacity="0.2" y="23.4597" width="4.3444" height="4.3444" fill="#EB753B"/>
<rect opacity="0.2" y="86.0192" width="4.3444" height="4.3444" fill="#EB753B"/>
<rect opacity="0.2" y="54.7395" width="4.3444" height="4.3444" fill="#EB753B"/>
<rect opacity="0.2" y="117.299" width="4.3444" height="4.3444" fill="#EB753B"/>
<rect opacity="0.2" x="62.5594" width="4.3444" height="4.3444" fill="#EB753B"/>
<rect opacity="0.2" x="62.5594" y="62.5594" width="4.3444" height="4.3444" fill="#EB753B"/>
<rect opacity="0.2" x="62.5594" y="31.2797" width="4.3444" height="4.3444" fill="#EB753B"/>
<rect opacity="0.2" x="62.5594" y="93.8391" width="4.3444" height="4.3444" fill="#EB753B"/>
<rect opacity="0.2" x="62.5594" y="15.6399" width="4.3444" height="4.3444" fill="#EB753B"/>
<rect opacity="0.2" x="62.5594" y="78.1992" width="4.3444" height="4.3444" fill="#EB753B"/>
<rect opacity="0.2" x="62.5594" y="46.9195" width="4.3444" height="4.3444" fill="#EB753B"/>
<rect opacity="0.2" x="62.5594" y="109.479" width="4.3444" height="4.3444" fill="#EB753B"/>
<rect opacity="0.2" x="62.5594" y="7.81989" width="4.3444" height="4.3444" fill="#EB753B"/>
<rect opacity="0.2" x="62.5594" y="70.3793" width="4.3444" height="4.3444" fill="#EB753B"/>
<rect opacity="0.2" x="62.5594" y="39.0996" width="4.3444" height="4.3444" fill="#EB753B"/>
<rect opacity="0.2" x="62.5594" y="101.659" width="4.3444" height="4.3444" fill="#EB753B"/>
<rect opacity="0.2" x="62.5594" y="23.4597" width="4.3444" height="4.3444" fill="#EB753B"/>
<rect opacity="0.2" x="62.5594" y="86.0192" width="4.3444" height="4.3444" fill="#EB753B"/>
<rect opacity="0.2" x="62.5594" y="54.7395" width="4.3444" height="4.3444" fill="#EB753B"/>
<rect opacity="0.2" x="62.5594" y="117.299" width="4.3444" height="4.3444" fill="#EB753B"/>
<rect opacity="0.2" x="31.2797" width="4.3444" height="4.3444" fill="#EB753B"/>
<rect opacity="0.2" x="31.2797" y="62.5594" width="4.3444" height="4.3444" fill="#EB753B"/>
<rect opacity="0.2" x="31.2797" y="31.2797" width="4.3444" height="4.3444" fill="#EB753B"/>
<rect opacity="0.2" x="31.2797" y="93.8391" width="4.3444" height="4.3444" fill="#EB753B"/>
<rect opacity="0.2" x="31.2797" y="15.6399" width="4.3444" height="4.3444" fill="#EB753B"/>
<rect opacity="0.2" x="31.2797" y="78.1992" width="4.3444" height="4.3444" fill="#EB753B"/>
<rect opacity="0.2" x="31.2797" y="46.9195" width="4.3444" height="4.3444" fill="#EB753B"/>
<rect opacity="0.2" x="31.2797" y="109.479" width="4.3444" height="4.3444" fill="#EB753B"/>
<rect opacity="0.2" x="31.2797" y="7.81989" width="4.3444" height="4.3444" fill="#EB753B"/>
<rect opacity="0.2" x="31.2797" y="70.3793" width="4.3444" height="4.3444" fill="#EB753B"/>
<rect opacity="0.2" x="31.2797" y="39.0996" width="4.3444" height="4.3444" fill="#EB753B"/>
<rect opacity="0.2" x="31.2797" y="101.659" width="4.3444" height="4.3444" fill="#EB753B"/>
<rect opacity="0.2" x="31.2797" y="23.4597" width="4.3444" height="4.3444" fill="#EB753B"/>
<rect opacity="0.2" x="31.2797" y="86.0192" width="4.3444" height="4.3444" fill="#EB753B"/>
<rect opacity="0.2" x="31.2797" y="54.7395" width="4.3444" height="4.3444" fill="#EB753B"/>
<rect opacity="0.2" x="31.2797" y="117.299" width="4.3444" height="4.3444" fill="#EB753B"/>
<rect opacity="0.2" x="93.8391" width="4.3444" height="4.3444" fill="#EB753B"/>
<rect opacity="0.2" x="93.8391" y="62.5594" width="4.3444" height="4.3444" fill="#EB753B"/>
<rect opacity="0.2" x="93.8391" y="31.2797" width="4.3444" height="4.3444" fill="#EB753B"/>
<rect opacity="0.2" x="93.8391" y="93.8391" width="4.3444" height="4.3444" fill="#EB753B"/>
<rect opacity="0.2" x="93.8391" y="15.6399" width="4.3444" height="4.3444" fill="#EB753B"/>
<rect opacity="0.2" x="93.8391" y="78.1992" width="4.3444" height="4.3444" fill="#EB753B"/>
<rect opacity="0.2" x="93.8391" y="46.9195" width="4.3444" height="4.3444" fill="#EB753B"/>
<rect opacity="0.2" x="93.8391" y="109.479" width="4.3444" height="4.3444" fill="#EB753B"/>
<rect opacity="0.2" x="93.8391" y="7.81989" width="4.3444" height="4.3444" fill="#EB753B"/>
<rect opacity="0.2" x="93.8391" y="70.3793" width="4.3444" height="4.3444" fill="#EB753B"/>
<rect opacity="0.2" x="93.8391" y="39.0996" width="4.3444" height="4.3444" fill="#EB753B"/>
<rect opacity="0.2" x="93.8391" y="101.659" width="4.3444" height="4.3444" fill="#EB753B"/>
<rect opacity="0.2" x="93.8391" y="23.4597" width="4.3444" height="4.3444" fill="#EB753B"/>
<rect opacity="0.2" x="93.8391" y="86.0192" width="4.3444" height="4.3444" fill="#EB753B"/>
<rect opacity="0.2" x="93.8391" y="54.7395" width="4.3444" height="4.3444" fill="#EB753B"/>
<rect opacity="0.2" x="93.8391" y="117.299" width="4.3444" height="4.3444" fill="#EB753B"/>
<rect opacity="0.2" x="15.6399" width="4.3444" height="4.3444" fill="#EB753B"/>
<rect opacity="0.2" x="15.6399" y="62.5594" width="4.3444" height="4.3444" fill="#EB753B"/>
<rect opacity="0.2" x="15.6399" y="31.2797" width="4.3444" height="4.3444" fill="#EB753B"/>
<rect opacity="0.2" x="15.6399" y="93.8391" width="4.3444" height="4.3444" fill="#EB753B"/>
<rect opacity="0.2" x="15.6399" y="15.6399" width="4.3444" height="4.3444" fill="#EB753B"/>
<rect opacity="0.2" x="15.6399" y="78.1992" width="4.3444" height="4.3444" fill="#EB753B"/>
<rect opacity="0.2" x="15.6399" y="46.9195" width="4.3444" height="4.3444" fill="#EB753B"/>
<rect opacity="0.2" x="15.6399" y="109.479" width="4.3444" height="4.3444" fill="#EB753B"/>
<rect opacity="0.2" x="15.6399" y="7.81989" width="4.3444" height="4.3444" fill="#EB753B"/>
<rect opacity="0.2" x="15.6399" y="70.3793" width="4.3444" height="4.3444" fill="#EB753B"/>
<rect opacity="0.2" x="15.6399" y="39.0996" width="4.3444" height="4.3444" fill="#EB753B"/>
<rect opacity="0.2" x="15.6399" y="101.659" width="4.3444" height="4.3444" fill="#EB753B"/>
<rect opacity="0.2" x="15.6399" y="23.4597" width="4.3444" height="4.3444" fill="#EB753B"/>
<rect opacity="0.2" x="15.6399" y="86.0192" width="4.3444" height="4.3444" fill="#EB753B"/>
<rect opacity="0.2" x="15.6399" y="54.7395" width="4.3444" height="4.3444" fill="#EB753B"/>
<rect opacity="0.2" x="15.6399" y="117.299" width="4.3444" height="4.3444" fill="#EB753B"/>
<rect opacity="0.2" x="78.1992" width="4.3444" height="4.3444" fill="#EB753B"/>
<rect opacity="0.2" x="78.1992" y="62.5594" width="4.3444" height="4.3444" fill="#EB753B"/>
<rect opacity="0.2" x="78.1992" y="31.2797" width="4.3444" height="4.3444" fill="#EB753B"/>
<rect opacity="0.2" x="78.1992" y="93.8391" width="4.3444" height="4.3444" fill="#EB753B"/>
<rect opacity="0.2" x="78.1992" y="15.6399" width="4.3444" height="4.3444" fill="#EB753B"/>
<rect opacity="0.2" x="78.1992" y="78.1992" width="4.3444" height="4.3444" fill="#EB753B"/>
<rect opacity="0.2" x="78.1992" y="46.9195" width="4.3444" height="4.3444" fill="#EB753B"/>
<rect opacity="0.2" x="78.1992" y="109.479" width="4.3444" height="4.3444" fill="#EB753B"/>
<rect opacity="0.2" x="78.1992" y="7.81989" width="4.3444" height="4.3444" fill="#EB753B"/>
<rect opacity="0.2" x="78.1992" y="70.3793" width="4.3444" height="4.3444" fill="#EB753B"/>
<rect opacity="0.2" x="78.1992" y="39.0996" width="4.3444" height="4.3444" fill="#EB753B"/>
<rect opacity="0.2" x="78.1992" y="101.659" width="4.3444" height="4.3444" fill="#EB753B"/>
<rect opacity="0.2" x="78.1992" y="23.4597" width="4.3444" height="4.3444" fill="#EB753B"/>
<rect opacity="0.2" x="78.1992" y="86.0192" width="4.3444" height="4.3444" fill="#EB753B"/>
<rect opacity="0.2" x="78.1992" y="54.7395" width="4.3444" height="4.3444" fill="#EB753B"/>
<rect opacity="0.2" x="78.1992" y="117.299" width="4.3444" height="4.3444" fill="#EB753B"/>
<rect opacity="0.2" x="46.9195" width="4.3444" height="4.3444" fill="#EB753B"/>
<rect opacity="0.2" x="46.9195" y="62.5594" width="4.3444" height="4.3444" fill="#EB753B"/>
<rect opacity="0.2" x="46.9195" y="31.2797" width="4.3444" height="4.3444" fill="#EB753B"/>
<rect opacity="0.2" x="46.9195" y="93.8391" width="4.3444" height="4.3444" fill="#EB753B"/>
<rect opacity="0.2" x="46.9195" y="15.6399" width="4.3444" height="4.3444" fill="#EB753B"/>
<rect opacity="0.2" x="46.9195" y="78.1992" width="4.3444" height="4.3444" fill="#EB753B"/>
<rect opacity="0.2" x="46.9195" y="46.9195" width="4.3444" height="4.3444" fill="#EB753B"/>
<rect opacity="0.2" x="46.9195" y="109.479" width="4.3444" height="4.3444" fill="#EB753B"/>
<rect opacity="0.2" x="46.9195" y="7.81989" width="4.3444" height="4.3444" fill="#EB753B"/>
<rect opacity="0.2" x="46.9195" y="70.3793" width="4.3444" height="4.3444" fill="#EB753B"/>
<rect opacity="0.2" x="46.9195" y="39.0996" width="4.3444" height="4.3444" fill="#EB753B"/>
<rect opacity="0.2" x="46.9195" y="101.659" width="4.3444" height="4.3444" fill="#EB753B"/>
<rect opacity="0.2" x="46.9195" y="23.4597" width="4.3444" height="4.3444" fill="#EB753B"/>
<rect opacity="0.2" x="46.9195" y="86.0192" width="4.3444" height="4.3444" fill="#EB753B"/>
<rect opacity="0.2" x="46.9195" y="54.7395" width="4.3444" height="4.3444" fill="#EB753B"/>
<rect opacity="0.2" x="46.9195" y="117.299" width="4.3444" height="4.3444" fill="#EB753B"/>
<rect opacity="0.2" x="109.479" width="4.3444" height="4.3444" fill="#EB753B"/>
<rect opacity="0.2" x="109.479" y="62.5594" width="4.3444" height="4.3444" fill="#EB753B"/>
<rect opacity="0.2" x="109.479" y="31.2797" width="4.3444" height="4.3444" fill="#EB753B"/>
<rect opacity="0.2" x="109.479" y="93.8391" width="4.3444" height="4.3444" fill="#EB753B"/>
<rect opacity="0.2" x="109.479" y="15.6399" width="4.3444" height="4.3444" fill="#EB753B"/>
<rect opacity="0.2" x="109.479" y="78.1992" width="4.3444" height="4.3444" fill="#EB753B"/>
<rect opacity="0.2" x="109.479" y="46.9195" width="4.3444" height="4.3444" fill="#EB753B"/>
<rect opacity="0.2" x="109.479" y="109.479" width="4.3444" height="4.3444" fill="#EB753B"/>
<rect opacity="0.2" x="109.479" y="7.81989" width="4.3444" height="4.3444" fill="#EB753B"/>
<rect opacity="0.2" x="109.479" y="70.3793" width="4.3444" height="4.3444" fill="#EB753B"/>
<rect opacity="0.2" x="109.479" y="39.0996" width="4.3444" height="4.3444" fill="#EB753B"/>
<rect opacity="0.2" x="109.479" y="101.659" width="4.3444" height="4.3444" fill="#EB753B"/>
<rect opacity="0.2" x="109.479" y="23.4597" width="4.3444" height="4.3444" fill="#EB753B"/>
<rect opacity="0.2" x="109.479" y="86.0192" width="4.3444" height="4.3444" fill="#EB753B"/>
<rect opacity="0.2" x="109.479" y="54.7395" width="4.3444" height="4.3444" fill="#EB753B"/>
<rect opacity="0.2" x="109.479" y="117.299" width="4.3444" height="4.3444" fill="#EB753B"/>
<rect opacity="0.2" x="7.81989" width="4.3444" height="4.3444" fill="#EB753B"/>
<rect opacity="0.2" x="7.81989" y="62.5594" width="4.3444" height="4.3444" fill="#EB753B"/>
<rect opacity="0.2" x="7.81989" y="31.2797" width="4.3444" height="4.3444" fill="#EB753B"/>
<rect opacity="0.2" x="7.81989" y="93.8391" width="4.3444" height="4.3444" fill="#EB753B"/>
<rect opacity="0.2" x="7.81989" y="15.6399" width="4.3444" height="4.3444" fill="#EB753B"/>
<rect opacity="0.2" x="7.81989" y="78.1992" width="4.3444" height="4.3444" fill="#EB753B"/>
<rect opacity="0.2" x="7.81989" y="46.9195" width="4.3444" height="4.3444" fill="#EB753B"/>
<rect opacity="0.2" x="7.81989" y="109.479" width="4.3444" height="4.3444" fill="#EB753B"/>
<rect opacity="0.2" x="7.81989" y="7.81989" width="4.3444" height="4.3444" fill="#EB753B"/>
<rect opacity="0.2" x="7.81989" y="70.3793" width="4.3444" height="4.3444" fill="#EB753B"/>
<rect opacity="0.2" x="7.81989" y="39.0996" width="4.3444" height="4.3444" fill="#EB753B"/>
<rect opacity="0.2" x="7.81989" y="101.659" width="4.3444" height="4.3444" fill="#EB753B"/>
<rect opacity="0.2" x="7.81989" y="23.4597" width="4.3444" height="4.3444" fill="#EB753B"/>
<rect opacity="0.2" x="7.81989" y="86.0192" width="4.3444" height="4.3444" fill="#EB753B"/>
<rect opacity="0.2" x="7.81989" y="54.7395" width="4.3444" height="4.3444" fill="#EB753B"/>
<rect opacity="0.2" x="7.81989" y="117.299" width="4.3444" height="4.3444" fill="#EB753B"/>
<rect opacity="0.2" x="70.3793" width="4.3444" height="4.3444" fill="#EB753B"/>
<rect opacity="0.2" x="70.3793" y="62.5594" width="4.3444" height="4.3444" fill="#EB753B"/>
<rect opacity="0.2" x="70.3793" y="31.2797" width="4.3444" height="4.3444" fill="#EB753B"/>
<rect opacity="0.2" x="70.3793" y="93.8391" width="4.3444" height="4.3444" fill="#EB753B"/>
<rect opacity="0.2" x="70.3793" y="15.6399" width="4.3444" height="4.3444" fill="#EB753B"/>
<rect opacity="0.2" x="70.3793" y="78.1992" width="4.3444" height="4.3444" fill="#EB753B"/>
<rect opacity="0.2" x="70.3793" y="46.9195" width="4.3444" height="4.3444" fill="#EB753B"/>
<rect opacity="0.2" x="70.3793" y="109.479" width="4.3444" height="4.3444" fill="#EB753B"/>
<rect opacity="0.2" x="70.3793" y="7.81989" width="4.3444" height="4.3444" fill="#EB753B"/>
<rect opacity="0.2" x="70.3793" y="70.3793" width="4.3444" height="4.3444" fill="#EB753B"/>
<rect opacity="0.2" x="70.3793" y="39.0996" width="4.3444" height="4.3444" fill="#EB753B"/>
<rect opacity="0.2" x="70.3793" y="101.659" width="4.3444" height="4.3444" fill="#EB753B"/>
<rect opacity="0.2" x="70.3793" y="23.4597" width="4.3444" height="4.3444" fill="#EB753B"/>
<rect opacity="0.2" x="70.3793" y="86.0192" width="4.3444" height="4.3444" fill="#EB753B"/>
<rect opacity="0.2" x="70.3793" y="54.7395" width="4.3444" height="4.3444" fill="#EB753B"/>
<rect opacity="0.2" x="70.3793" y="117.299" width="4.3444" height="4.3444" fill="#EB753B"/>
<rect opacity="0.2" x="39.0997" width="4.3444" height="4.3444" fill="#EB753B"/>
<rect opacity="0.2" x="39.0997" y="62.5594" width="4.3444" height="4.3444" fill="#EB753B"/>
<rect opacity="0.2" x="39.0997" y="31.2797" width="4.3444" height="4.3444" fill="#EB753B"/>
<rect opacity="0.2" x="39.0997" y="93.8391" width="4.3444" height="4.3444" fill="#EB753B"/>
<rect opacity="0.2" x="39.0997" y="15.6399" width="4.3444" height="4.3444" fill="#EB753B"/>
<rect opacity="0.2" x="39.0997" y="78.1992" width="4.3444" height="4.3444" fill="#EB753B"/>
<rect opacity="0.2" x="39.0997" y="46.9195" width="4.3444" height="4.3444" fill="#EB753B"/>
<rect opacity="0.2" x="39.0997" y="109.479" width="4.3444" height="4.3444" fill="#EB753B"/>
<rect opacity="0.2" x="39.0997" y="7.81989" width="4.3444" height="4.3444" fill="#EB753B"/>
<rect opacity="0.2" x="39.0997" y="70.3793" width="4.3444" height="4.3444" fill="#EB753B"/>
<rect opacity="0.2" x="39.0997" y="39.0996" width="4.3444" height="4.3444" fill="#EB753B"/>
<rect opacity="0.2" x="39.0997" y="101.659" width="4.3444" height="4.3444" fill="#EB753B"/>
<rect opacity="0.2" x="39.0997" y="23.4597" width="4.3444" height="4.3444" fill="#EB753B"/>
<rect opacity="0.2" x="39.0997" y="86.0192" width="4.3444" height="4.3444" fill="#EB753B"/>
<rect opacity="0.2" x="39.0997" y="54.7395" width="4.3444" height="4.3444" fill="#EB753B"/>
<rect opacity="0.2" x="39.0997" y="117.299" width="4.3444" height="4.3444" fill="#EB753B"/>
<rect opacity="0.2" x="101.659" width="4.3444" height="4.3444" fill="#EB753B"/>
<rect opacity="0.2" x="101.659" y="62.5594" width="4.3444" height="4.3444" fill="#EB753B"/>
<rect opacity="0.2" x="101.659" y="31.2797" width="4.3444" height="4.3444" fill="#EB753B"/>
<rect opacity="0.2" x="101.659" y="93.8391" width="4.3444" height="4.3444" fill="#EB753B"/>
<rect opacity="0.2" x="101.659" y="15.6399" width="4.3444" height="4.3444" fill="#EB753B"/>
<rect opacity="0.2" x="101.659" y="78.1992" width="4.3444" height="4.3444" fill="#EB753B"/>
<rect opacity="0.2" x="101.659" y="46.9195" width="4.3444" height="4.3444" fill="#EB753B"/>
<rect opacity="0.2" x="101.659" y="109.479" width="4.3444" height="4.3444" fill="#EB753B"/>
<rect opacity="0.2" x="101.659" y="7.81989" width="4.3444" height="4.3444" fill="#EB753B"/>
<rect opacity="0.2" x="101.659" y="70.3793" width="4.3444" height="4.3444" fill="#EB753B"/>
<rect opacity="0.2" x="101.659" y="39.0996" width="4.3444" height="4.3444" fill="#EB753B"/>
<rect opacity="0.2" x="101.659" y="101.659" width="4.3444" height="4.3444" fill="#EB753B"/>
<rect opacity="0.2" x="101.659" y="23.4597" width="4.3444" height="4.3444" fill="#EB753B"/>
<rect opacity="0.2" x="101.659" y="86.0192" width="4.3444" height="4.3444" fill="#EB753B"/>
<rect opacity="0.2" x="101.659" y="54.7395" width="4.3444" height="4.3444" fill="#EB753B"/>
<rect opacity="0.2" x="101.659" y="117.299" width="4.3444" height="4.3444" fill="#EB753B"/>
<rect opacity="0.2" x="23.4598" width="4.3444" height="4.3444" fill="#EB753B"/>
<rect opacity="0.2" x="23.4598" y="62.5594" width="4.3444" height="4.3444" fill="#EB753B"/>
<rect opacity="0.2" x="23.4598" y="31.2797" width="4.3444" height="4.3444" fill="#EB753B"/>
<rect opacity="0.2" x="23.4598" y="93.8391" width="4.3444" height="4.3444" fill="#EB753B"/>
<rect opacity="0.2" x="23.4598" y="15.6399" width="4.3444" height="4.3444" fill="#EB753B"/>
<rect opacity="0.2" x="23.4598" y="78.1992" width="4.3444" height="4.3444" fill="#EB753B"/>
<rect opacity="0.2" x="23.4598" y="46.9195" width="4.3444" height="4.3444" fill="#EB753B"/>
<rect opacity="0.2" x="23.4598" y="109.479" width="4.3444" height="4.3444" fill="#EB753B"/>
<rect opacity="0.2" x="23.4598" y="7.81989" width="4.3444" height="4.3444" fill="#EB753B"/>
<rect opacity="0.2" x="23.4598" y="70.3793" width="4.3444" height="4.3444" fill="#EB753B"/>
<rect opacity="0.2" x="23.4598" y="39.0996" width="4.3444" height="4.3444" fill="#EB753B"/>
<rect opacity="0.2" x="23.4598" y="101.659" width="4.3444" height="4.3444" fill="#EB753B"/>
<rect opacity="0.2" x="23.4598" y="23.4597" width="4.3444" height="4.3444" fill="#EB753B"/>
<rect opacity="0.2" x="23.4598" y="86.0192" width="4.3444" height="4.3444" fill="#EB753B"/>
<rect opacity="0.2" x="23.4598" y="54.7395" width="4.3444" height="4.3444" fill="#EB753B"/>
<rect opacity="0.2" x="23.4598" y="117.299" width="4.3444" height="4.3444" fill="#EB753B"/>
<rect opacity="0.2" x="86.0192" width="4.3444" height="4.3444" fill="#EB753B"/>
<rect opacity="0.2" x="86.0192" y="62.5594" width="4.3444" height="4.3444" fill="#EB753B"/>
<rect opacity="0.2" x="86.0192" y="31.2797" width="4.3444" height="4.3444" fill="#EB753B"/>
<rect opacity="0.2" x="86.0192" y="93.8391" width="4.3444" height="4.3444" fill="#EB753B"/>
<rect opacity="0.2" x="86.0192" y="15.6399" width="4.3444" height="4.3444" fill="#EB753B"/>
<rect opacity="0.2" x="86.0192" y="78.1992" width="4.3444" height="4.3444" fill="#EB753B"/>
<rect opacity="0.2" x="86.0192" y="46.9195" width="4.3444" height="4.3444" fill="#EB753B"/>
<rect opacity="0.2" x="86.0192" y="109.479" width="4.3444" height="4.3444" fill="#EB753B"/>
<rect opacity="0.2" x="86.0192" y="7.81989" width="4.3444" height="4.3444" fill="#EB753B"/>
<rect opacity="0.2" x="86.0192" y="70.3793" width="4.3444" height="4.3444" fill="#EB753B"/>
<rect opacity="0.2" x="86.0192" y="39.0996" width="4.3444" height="4.3444" fill="#EB753B"/>
<rect opacity="0.2" x="86.0192" y="101.659" width="4.3444" height="4.3444" fill="#EB753B"/>
<rect opacity="0.2" x="86.0192" y="23.4597" width="4.3444" height="4.3444" fill="#EB753B"/>
<rect opacity="0.2" x="86.0192" y="86.0192" width="4.3444" height="4.3444" fill="#EB753B"/>
<rect opacity="0.2" x="86.0192" y="54.7395" width="4.3444" height="4.3444" fill="#EB753B"/>
<rect opacity="0.2" x="86.0192" y="117.299" width="4.3444" height="4.3444" fill="#EB753B"/>
<rect opacity="0.2" x="54.7395" width="4.3444" height="4.3444" fill="#EB753B"/>
<rect opacity="0.2" x="54.7395" y="62.5594" width="4.3444" height="4.3444" fill="#EB753B"/>
<rect opacity="0.2" x="54.7395" y="31.2797" width="4.3444" height="4.3444" fill="#EB753B"/>
<rect opacity="0.2" x="54.7395" y="93.8391" width="4.3444" height="4.3444" fill="#EB753B"/>
<rect opacity="0.2" x="54.7395" y="15.6399" width="4.3444" height="4.3444" fill="#EB753B"/>
<rect opacity="0.2" x="54.7395" y="78.1992" width="4.3444" height="4.3444" fill="#EB753B"/>
<rect opacity="0.2" x="54.7395" y="46.9195" width="4.3444" height="4.3444" fill="#EB753B"/>
<rect opacity="0.2" x="54.7395" y="109.479" width="4.3444" height="4.3444" fill="#EB753B"/>
<rect opacity="0.2" x="54.7395" y="7.81989" width="4.3444" height="4.3444" fill="#EB753B"/>
<rect opacity="0.2" x="54.7395" y="70.3793" width="4.3444" height="4.3444" fill="#EB753B"/>
<rect opacity="0.2" x="54.7395" y="39.0996" width="4.3444" height="4.3444" fill="#EB753B"/>
<rect opacity="0.2" x="54.7395" y="101.659" width="4.3444" height="4.3444" fill="#EB753B"/>
<rect opacity="0.2" x="54.7395" y="23.4597" width="4.3444" height="4.3444" fill="#EB753B"/>
<rect opacity="0.2" x="54.7395" y="86.0192" width="4.3444" height="4.3444" fill="#EB753B"/>
<rect opacity="0.2" x="54.7395" y="54.7395" width="4.3444" height="4.3444" fill="#EB753B"/>
<rect opacity="0.2" x="54.7395" y="117.299" width="4.3444" height="4.3444" fill="#EB753B"/>
<rect opacity="0.2" x="117.299" width="4.3444" height="4.3444" fill="#EB753B"/>
<rect opacity="0.2" x="117.299" y="62.5594" width="4.3444" height="4.3444" fill="#EB753B"/>
<rect opacity="0.2" x="117.299" y="31.2797" width="4.3444" height="4.3444" fill="#EB753B"/>
<rect opacity="0.2" x="117.299" y="93.8391" width="4.3444" height="4.3444" fill="#EB753B"/>
<rect opacity="0.2" x="117.299" y="15.6399" width="4.3444" height="4.3444" fill="#EB753B"/>
<rect opacity="0.2" x="117.299" y="78.1992" width="4.3444" height="4.3444" fill="#EB753B"/>
<rect opacity="0.2" x="117.299" y="46.9195" width="4.3444" height="4.3444" fill="#EB753B"/>
<rect opacity="0.2" x="117.299" y="109.479" width="4.3444" height="4.3444" fill="#EB753B"/>
<rect opacity="0.2" x="117.299" y="7.81989" width="4.3444" height="4.3444" fill="#EB753B"/>
<rect opacity="0.2" x="117.299" y="70.3793" width="4.3444" height="4.3444" fill="#EB753B"/>
<rect opacity="0.2" x="117.299" y="39.0996" width="4.3444" height="4.3444" fill="#EB753B"/>
<rect opacity="0.2" x="117.299" y="101.659" width="4.3444" height="4.3444" fill="#EB753B"/>
<rect opacity="0.2" x="117.299" y="23.4597" width="4.3444" height="4.3444" fill="#EB753B"/>
<rect opacity="0.2" x="117.299" y="86.0192" width="4.3444" height="4.3444" fill="#EB753B"/>
<rect opacity="0.2" x="117.299" y="54.7395" width="4.3444" height="4.3444" fill="#EB753B"/>
<rect opacity="0.2" x="117.299" y="117.299" width="4.3444" height="4.3444" fill="#EB753B"/>
</svg>
