<svg width="42" height="36" viewBox="0 0 42 36" fill="none" xmlns="http://www.w3.org/2000/svg">
<g clip-path="url(#clip0_304_34)">
<path d="M0.866577 18.0668C0.866577 9.48066 7.32907 2.07509 15.8919 0.894491C25.0471 -0.33977 33.4483 5.50956 35.3871 14.4714C35.4409 14.686 35.4948 14.9007 35.4948 15.0617C35.5486 15.5446 35.3332 15.8666 34.9562 15.974C34.5254 16.0813 34.2023 15.813 34.0946 15.33C33.7715 14.2031 33.556 13.0225 33.1252 12.0028C30.5402 6.26085 26.178 2.93371 19.9309 2.28974C11.5836 1.43113 4.20553 6.95847 2.64376 15.169C0.920431 23.9162 7.11366 32.556 15.9996 33.7903C24.4008 34.9708 32.0481 29.7118 33.9869 21.5013C34.0407 21.2866 34.0946 21.072 34.0946 20.8573C34.2023 20.3744 34.5254 20.106 34.9562 20.1597C35.3871 20.267 35.6025 20.589 35.4948 21.072C35.1717 22.6819 34.7408 24.2918 33.933 25.7407C31.1865 30.9997 26.932 34.1659 21.0619 35.1855C11.6374 36.7417 2.58991 30.1948 1.13585 20.8037C1.02814 19.8914 0.974285 18.9791 0.866577 18.0668Z" fill="white"/>
<path d="M18.3692 6.26074C23.6469 6.26074 28.386 9.8562 29.7862 14.9006C29.9478 15.4372 29.7862 15.8129 29.3554 15.9738C28.9246 16.0812 28.6014 15.8129 28.4399 15.2762C27.0397 10.9295 24.1316 8.40728 19.6078 7.76332C14.2224 7.01203 8.9447 10.9295 8.08303 16.2422C7.16751 21.9842 10.7219 27.0822 16.4304 28.2091C21.5466 29.2287 26.7704 26.1163 28.2783 21.0719C28.3322 20.9646 28.3322 20.8572 28.386 20.7499C28.5476 20.2669 28.9246 19.9986 29.3016 20.1596C29.6785 20.2669 29.8939 20.6962 29.7324 21.1255C29.517 21.7695 29.3016 22.4135 29.0323 23.0038C26.9858 27.5652 21.9235 30.4093 17.0228 29.7654C11.6913 29.0678 7.54449 25.204 6.62897 20.1059C5.44418 13.3443 10.2372 7.0657 17.1305 6.31441C17.5614 6.26074 17.9383 6.26074 18.3692 6.26074Z" fill="white"/>
<path d="M38.8338 18.0131C39.5877 18.7644 40.234 19.4084 40.9341 20.106C41.2033 20.3743 41.4188 20.6426 41.2572 21.072C41.0956 21.4476 40.7725 21.5549 40.3417 21.5549C39.5877 21.5549 38.7799 21.6086 38.0259 21.5549C37.7028 21.5549 37.3258 21.3939 37.1104 21.1793C36.4103 20.5353 35.7102 19.8377 35.0101 19.1401C34.7947 18.8717 34.5254 18.8181 34.2023 18.8181C29.0323 18.8181 23.9162 18.8181 18.7462 18.8181C18.6385 18.8181 18.5307 18.8181 18.3692 18.8181C17.8845 18.8181 17.5614 18.5498 17.5614 18.1205C17.5614 17.6911 17.8306 17.4228 18.3692 17.3692C18.4769 17.3692 18.5846 17.3692 18.7462 17.3692C23.8623 17.3692 29.0323 17.3692 34.1484 17.3692C34.5254 17.3692 34.7947 17.2618 35.064 16.9935C35.7102 16.2959 36.4103 15.5983 37.1104 14.9543C37.3258 14.7397 37.7028 14.6323 37.9721 14.5787C38.726 14.525 39.5339 14.5787 40.3417 14.5787C40.7186 14.5787 41.0418 14.6323 41.2033 15.008C41.3649 15.3836 41.2033 15.7056 40.8802 15.9739C40.234 16.6179 39.5877 17.3155 38.8338 18.0131ZM38.8338 20.0523C38.3491 19.5694 37.9182 19.1401 37.4874 18.7108C37.0027 18.2278 37.0027 17.8521 37.4874 17.3692C37.9182 16.9399 38.3491 16.5105 38.8338 16.0812C38.8338 16.0276 38.7799 15.9739 38.7799 15.9739C38.5645 16.0276 38.2414 15.9739 38.0798 16.1349C37.3797 16.7252 36.7873 17.3692 36.0872 18.0668C36.6796 18.6571 37.272 19.1937 37.8105 19.784C38.0798 20.0523 38.3491 20.1597 38.8338 20.0523Z" fill="white"/>
<path d="M12.0682 18.0131C12.0682 15.2226 13.9531 12.7541 16.6458 12.0028C19.3385 11.2515 22.1928 12.3784 23.6469 14.686C23.7546 14.9006 23.9161 15.1689 23.8084 15.3836C23.7546 15.5982 23.4853 15.8129 23.216 15.9202C22.8929 16.0276 22.6236 15.8129 22.4621 15.5446C21.8158 14.525 20.9542 13.7737 19.7694 13.4517C17.8845 12.9151 16.215 13.2907 14.8687 14.686C13.5223 16.0812 13.1453 17.7985 13.7916 19.6767C14.4378 21.5012 15.838 22.5745 17.7768 22.7892C19.7155 23.0038 21.2234 22.2525 22.3544 20.6963C22.4082 20.6426 22.4082 20.589 22.4621 20.4816C22.7852 20.0523 23.1622 19.8913 23.5392 20.1597C23.9161 20.3743 23.97 20.8036 23.7007 21.2866C23.1083 22.2525 22.3005 23.0038 21.2773 23.5405C17.0228 25.7407 12.0682 22.7355 12.0682 18.0131Z" fill="white"/>
</g>
<defs>
<clipPath id="clip0_304_34">
<rect width="40.4444" height="34.6667" fill="white" transform="translate(0.866577 0.733398)"/>
</clipPath>
</defs>
</svg>
