<svg width="38" height="38" viewBox="0 0 38 38" fill="none" xmlns="http://www.w3.org/2000/svg">
<path d="M20.7289 6.32336C20.7289 7.20927 20.7289 8.053 20.7289 8.93891C20.7289 9.06547 20.7289 9.23422 20.648 9.36078C20.5266 9.6139 20.3243 9.74046 20.0411 9.69827C19.7175 9.6139 19.5961 9.40296 19.5556 9.06547C19.5556 8.30612 19.5556 7.54676 19.5556 6.78741C19.5556 6.66085 19.5556 6.53429 19.5556 6.36554C17.5733 6.36554 15.6719 6.36554 13.6491 6.36554C13.6491 6.4921 13.6491 6.61866 13.6491 6.74522C13.6491 8.053 13.6491 9.36078 13.6491 10.6686C13.6491 11.892 13.3659 12.9888 12.7591 14.0013C10.8981 17.334 9.03711 20.6245 7.17614 23.9573C7.09523 24.0838 7.05477 24.2104 6.93341 24.4213C7.49979 24.5479 7.98526 24.7166 8.51119 24.801C9.64395 24.9276 10.6958 24.5901 11.7072 24.0838C12.2331 23.8307 12.5568 23.8729 12.7186 24.2104C12.9209 24.5901 12.7186 24.8854 12.1927 25.1385C10.1699 26.151 8.91575 26.2353 6.36702 25.4338C6.28611 25.5604 6.2052 25.6869 6.16474 25.8135C4.87016 28.1337 3.57557 30.4962 2.24052 32.8164C1.87642 33.4914 1.79551 34.1664 2.15961 34.8414C2.52371 35.5163 3.0901 35.8116 3.85876 35.8116C12.2736 35.8116 20.648 35.8116 29.0628 35.8116C29.1842 35.8116 29.346 35.8116 29.4673 35.8116C29.791 35.8538 29.9933 36.0226 29.9933 36.3601C30.0337 36.6976 29.8314 36.9085 29.5483 36.9929C29.4269 37.035 29.3055 37.035 29.1842 37.035C20.7289 37.035 12.2736 37.035 3.8183 37.035C2.64508 37.035 1.75505 36.5288 1.18867 35.4742C0.622287 34.4195 0.622287 33.3648 1.22913 32.268C4.74879 25.9822 8.26845 19.6543 11.8286 13.3685C12.2736 12.5669 12.5163 11.7232 12.5163 10.7951C12.5163 9.31859 12.5163 7.84207 12.5163 6.32336C12.4354 6.28117 12.3545 6.23899 12.2736 6.23899C10.979 5.73275 10.1699 4.42497 10.3722 3.07501C10.5744 1.64067 11.7072 0.58601 13.1232 0.543823C15.5101 0.543823 17.816 0.543823 20.122 0.58601C21.538 0.58601 22.6303 1.64067 22.8326 3.11719C23.0349 4.46716 22.2662 5.77494 20.9716 6.23899C20.8907 6.23899 20.8098 6.28117 20.7289 6.32336ZM16.6428 5.18433C17.816 5.18433 18.9488 5.18433 20.122 5.18433C20.3648 5.18433 20.648 5.09995 20.8907 4.97339C21.5784 4.6359 21.9021 3.83436 21.6998 3.07501C21.538 2.31565 20.8907 1.76723 20.0816 1.72504C19.1915 1.72504 18.2611 1.72504 17.371 1.72504C15.9955 1.72504 14.6605 1.72504 13.285 1.72504C12.314 1.72504 11.5858 2.4844 11.5858 3.45468C11.5858 4.42497 12.314 5.14214 13.285 5.18433C14.3773 5.18433 15.5101 5.18433 16.6428 5.18433Z" fill="white"/>
<path d="M29.4269 25.0541C30.5192 25.9822 31.6115 26.9525 32.7038 27.8806C33.7961 28.8087 34.8884 29.7368 35.9807 30.6649C37.5181 32.0149 37.8013 34.1664 36.628 35.6429C35.2121 37.4147 32.7038 37.4147 31.3283 35.6429C29.5483 33.5336 27.8491 31.3821 26.15 29.2306C26.0286 29.104 25.9477 28.9774 25.8263 28.8509C21.3762 31.129 16.6833 29.3993 14.4177 25.6447C12.1927 21.9745 12.84 17.0809 15.8337 14.17C18.8679 11.217 23.5608 10.9639 26.8782 13.495C30.2765 16.0684 31.5306 20.962 29.4269 25.0541ZM21.8212 12.9466C17.4519 13.031 14.1346 16.4903 14.2559 20.962C14.3368 25.3916 17.7351 28.7665 21.983 28.6821C26.2713 28.5978 29.3864 24.6744 29.346 20.7511C29.2651 16.4059 25.8263 12.8622 21.8212 12.9466ZM26.8782 28.2181C26.8782 28.2603 26.9186 28.3025 26.9591 28.3447C28.6987 30.5805 30.4787 32.7742 32.2588 35.0101C32.5015 35.3054 32.9061 35.5585 33.3106 35.6851C34.6862 36.1913 36.183 35.0945 36.2235 33.618C36.2639 32.732 35.8189 32.0992 35.2121 31.5508C33.9984 30.4962 32.7443 29.4415 31.5306 28.3868C30.6406 27.6275 29.7505 26.8681 28.901 26.1088C28.5773 26.4885 28.2941 26.8681 27.9705 27.2056C27.5659 27.5431 27.2423 27.8806 26.8782 28.2181Z" fill="white"/>
<path d="M11.5049 27.4587C12.2331 27.4587 12.84 28.0493 12.84 28.8509C12.84 29.6102 12.2331 30.243 11.5049 30.243C10.7767 30.243 10.1699 29.6102 10.1699 28.8087C10.2103 28.0494 10.7767 27.4587 11.5049 27.4587Z" fill="white"/>
<path d="M21.538 34.293C20.7693 34.293 20.2029 33.7024 20.2029 32.9008C20.2029 32.1415 20.8098 31.5087 21.4975 31.5087C22.2257 31.5087 22.873 32.1415 22.873 32.9008C22.873 33.6602 22.2662 34.293 21.538 34.293Z" fill="white"/>
<path d="M12.395 34.1664C12.395 33.5757 12.84 33.1117 13.4064 33.1117C13.9727 33.1117 14.4177 33.5757 14.4177 34.1664C14.4177 34.7991 13.9727 35.2632 13.3659 35.221C12.84 35.2632 12.395 34.757 12.395 34.1664Z" fill="white"/>
<path d="M15.4696 20.7932C15.4696 17.123 18.2611 14.2122 21.7807 14.2544C25.2599 14.2544 28.0514 17.2074 28.0514 20.7932C28.0514 24.4635 25.2195 27.4165 21.6998 27.4165C18.2611 27.3743 15.4696 24.4213 15.4696 20.7932ZM26.9186 20.7932C26.9186 17.8402 24.6531 15.4356 21.8212 15.4356C18.9084 15.4356 16.6428 17.7558 16.6024 20.7932C16.6024 23.7885 18.8679 26.1931 21.6998 26.1931C24.5722 26.1931 26.9186 23.7463 26.9186 20.7932Z" fill="white"/>
<path d="M23.7631 20.7511C23.0349 20.7511 22.428 20.1183 22.428 19.3589C22.428 18.5996 23.0349 17.9668 23.7631 17.9668C24.4913 17.9668 25.1386 18.5996 25.0981 19.3589C25.0981 20.1183 24.4913 20.7511 23.7631 20.7511Z" fill="white"/>
<path d="M23.4799 23.915C23.4799 24.5056 22.9944 24.9697 22.4685 24.9697C21.9021 24.9697 21.4571 24.5056 21.4571 23.915C21.4571 23.3244 21.9021 22.8182 22.5089 22.8604C23.0349 22.8182 23.4799 23.3244 23.4799 23.915Z" fill="white"/>
<path d="M19.232 20.7932C18.6656 20.7932 18.2206 20.287 18.2206 19.6964C18.2206 19.1058 18.7061 18.6417 19.2725 18.6417C19.8388 18.6417 20.3243 19.148 20.2839 19.7386C20.2434 20.3714 19.7984 20.8354 19.232 20.7932Z" fill="white"/>
</svg>
