<svg width="50" height="50" viewBox="0 0 50 50" fill="none" xmlns="http://www.w3.org/2000/svg">
<g clip-path="url(#clip0_310_167)">
<path fill-rule="evenodd" clip-rule="evenodd" d="M48.479 10.3307C45.6124 3.59922 40.1326 0.350195 33.9899 0C28.4517 0 24.259 1.6537 21.0609 4.72763C19.3643 6.36187 17.6873 8.03502 16.0492 9.74708C15.7957 10 15.6397 10.5447 15.7372 10.8949C16.4957 13.7548 17.2582 16.6107 18.0211 19.4681L18.0214 19.4691L18.0217 19.4701C18.9453 22.9294 19.8695 26.3908 20.7879 29.8638C20.9439 30.428 21.2169 30.642 21.7434 30.7782C27.1451 32.1984 32.5273 33.6381 37.9096 35.0973C38.4361 35.2529 38.7871 35.214 39.1966 34.8054C39.9567 34.0248 40.7368 33.2612 41.5172 32.4972L41.5174 32.497L41.5176 32.4968L41.5178 32.4966L41.5181 32.4964C42.7795 31.2616 44.0419 30.0259 45.2224 28.716C50.117 23.2879 51.3261 17.0233 48.479 10.3307ZM21.6459 16.9844C21.6459 10.7977 26.6966 5.81712 32.9174 5.83658C39.0991 5.85603 44.0718 10.8755 44.0523 17.1012C44.0328 23.2296 39.0016 28.2101 32.8394 28.2101C26.6576 28.1907 21.6264 23.1712 21.6459 16.9844ZM16.8487 50C18.8963 49.6498 20.8463 49.3191 22.9134 48.9689C19.6178 36.7315 16.4002 24.7471 13.1435 12.607C12.6917 13.0578 12.2525 13.5014 11.8205 13.9377L11.8204 13.9378L11.8203 13.9379L11.8203 13.938C10.8354 14.9327 9.88777 15.8898 8.91187 16.8093C8.32685 17.3736 8.17084 17.8599 8.38535 18.6576C10.1621 25.1522 11.9046 31.6582 13.6477 38.1669C14.1813 40.1591 14.7149 42.1515 15.2496 44.144C15.5411 45.2288 15.839 46.3136 16.147 47.4353C16.3748 48.265 16.6082 49.1149 16.8487 50ZM13.631 49.358C8.36583 48.93 2.6326 43.7938 0.78003 37.9572C-1.24805 31.5759 0.760529 24.2024 5.77223 20.0584C7.75603 27.4877 9.73983 34.8721 11.7322 42.2883C12.3642 44.6408 12.997 46.9966 13.631 49.358ZM22.4064 33.9495C22.2894 33.93 22.1724 33.9106 21.8799 33.8717C22.3324 35.5505 22.7798 37.2089 23.2239 38.8552L23.2263 38.864C24.0063 41.7552 24.7762 44.6091 25.5461 47.4709C27.2621 46.5954 35.1014 39.2608 36.1155 37.6071C34.1768 37.0885 32.2415 36.5735 30.3083 36.059C27.6719 35.3573 25.0391 34.6566 22.4064 33.9495ZM31.1622 25.0001C32.8003 22.4709 32.7613 20.3113 31.0452 18.6771C29.3877 17.0818 27.2231 17.0818 24.844 18.6771C23.7909 15.9923 25.351 12.0234 28.2566 10.1168C31.4937 7.97671 35.7644 8.36581 38.592 11.0506C41.3806 13.716 41.9267 17.9962 39.9181 21.3036C38.085 24.3386 34.1068 26.0117 31.1622 25.0001ZM31.1817 12.4709C30.3822 12.4514 29.6802 13.1323 29.6607 13.93C29.6607 14.6888 30.3042 15.3502 31.0647 15.3697C31.8447 15.3892 32.5078 14.8055 32.5468 14.0273C32.6053 13.1907 31.9813 12.4903 31.1817 12.4709ZM37.4025 18.716C37.383 17.8989 36.7004 17.2763 35.8814 17.3152C35.1014 17.3541 34.4969 17.9962 34.4969 18.7744C34.5164 19.5526 35.1599 20.1946 35.9204 20.2141C36.7199 20.2141 37.422 19.5137 37.4025 18.716ZM28.0616 23.288C28.8612 23.249 29.4657 22.6265 29.4657 21.8288C29.4657 21.0311 28.8807 20.428 28.0811 20.4086C27.2426 20.3697 26.5601 21.0117 26.5601 21.8288C26.5601 22.6265 27.2621 23.3074 28.0616 23.288Z" fill="white"/>
</g>
<defs>
<clipPath id="clip0_310_167">
<rect width="50" height="50" fill="white"/>
</clipPath>
</defs>
</svg>
