<svg width="60" height="60" viewBox="0 0 60 60" fill="none" xmlns="http://www.w3.org/2000/svg">
<path d="M33.8203 20.6953H26.1797V25.7695H21.1055V33.4219H26.1797V38.4961H33.8203V33.4219H38.9062V25.7695H33.8203V20.6953Z" fill="white"/>
<path d="M51.703 13.3828C50.9647 13.5469 50.203 13.6289 49.4178 13.6289C43.746 13.6289 39.1405 9.10547 39.1405 3.51562H20.8475C20.8475 9.09375 16.2421 13.6289 10.5702 13.6289C9.78502 13.6289 9.0233 13.5469 8.28502 13.3828C1.62877 41.4844 29.9999 56.4844 29.9999 56.4844C29.9999 56.4844 58.371 41.4844 51.703 13.3828ZM39.785 42.3984C36.2108 46.5469 32.3553 49.418 30.0116 50.9766C27.6092 49.3828 23.6366 46.418 20.0389 42.1875C15.1522 36.4336 12.4803 30.2344 12.0585 23.6836L11.9999 22.043C11.9999 21.5859 11.457 22 11 22L11.9999 22.043C11.9881 20.7891 12.0585 19.5352 12.2108 18.2578C18.0936 17.625 22.9686 13.6172 24.785 8.22656H35.2264C37.0546 13.6055 41.9296 17.625 47.8006 18.2578C48.8202 26.918 46.1366 35.0273 39.785 42.3984Z" fill="white"/>
</svg>
