<svg width="55" height="55" viewBox="0 0 55 55" fill="none" xmlns="http://www.w3.org/2000/svg">
<path d="M38.6106 11.4994C40.6775 11.4994 42.3495 9.78009 42.3495 7.65489C42.3495 5.54289 40.6764 3.82249 38.6106 3.82249C36.5592 3.82249 34.8849 5.54179 34.8849 7.65489C34.8849 9.78009 36.558 11.4994 38.6106 11.4994ZM41.3892 12.3596H35.9431L26.6614 2.81049C25.9365 2.02619 24.732 1.98879 23.9685 2.74669C23.2062 3.49249 23.1688 4.73219 23.896 5.51649L33.5957 15.5078V48.62C33.5957 49.8212 34.5308 50.7815 35.6857 50.7815C36.854 50.7815 37.7878 49.8212 37.7878 48.62V30.6603H39.484L39.4972 48.6211C39.4972 49.8223 40.4432 50.7826 41.5982 50.7826C42.7565 50.7826 43.6893 49.8223 43.6893 48.6211L43.6772 15.51L53.3781 5.51869C54.1031 4.73439 54.0656 3.49469 53.3033 2.74889C52.5421 1.99099 51.3365 2.02729 50.6105 2.81269L41.3892 12.3596ZM21.6563 26.9676C21.0909 26.3725 20.3154 26.0194 19.4563 26.0194H11.6474C10.7872 26.0194 10.0128 26.3736 9.45955 26.9676L1.62645 35.0251C0.901548 35.8094 0.926847 37.048 1.68915 37.7949C2.45035 38.5407 3.66915 38.5154 4.38195 37.7311L10.455 31.4831V39.8299H3.64385C2.39095 39.8299 1.38005 40.8661 1.38005 42.1575C1.38005 42.8274 1.62645 43.4225 2.06975 43.8526L9.74115 51.744C10.4176 52.7692 11.7453 53.0981 12.8035 52.4645C13.9211 51.8078 14.2918 50.3536 13.6516 49.2162L9.27475 44.7249L9.36055 44.737H21.9258L17.5368 49.2272C16.9098 50.3657 17.2783 51.8199 18.3838 52.4766C19.442 53.1102 20.7829 52.7824 21.4594 51.7572L29.1308 43.8658C29.5719 43.4346 29.8194 42.8395 29.8194 42.1707C29.8194 40.8793 28.8107 39.8442 27.5578 39.8442H20.7576V31.5843L26.7207 37.7432C27.4467 38.5286 28.6502 38.5539 29.4124 37.807C30.1747 37.0612 30.2011 35.8215 29.4751 35.0383L21.6563 26.9676ZM15.6327 25.1966C17.6853 25.1966 19.3452 23.4784 19.3452 21.3642C19.3452 19.239 17.6853 17.5318 15.6327 17.5318C13.5779 17.5318 11.9048 19.239 11.9048 21.3642C11.9048 23.4784 13.579 25.1966 15.6327 25.1966Z" fill="white"/>
</svg>
