<svg width="55" height="50" viewBox="0 0 55 50" fill="none" xmlns="http://www.w3.org/2000/svg">
<path fill-rule="evenodd" clip-rule="evenodd" d="M29.4668 3.85135C29.4668 4.07658 29.4745 4.3018 29.4822 4.52703V4.52707C29.4975 4.97751 29.5128 5.42794 29.4668 5.87838C29.3978 6.95946 28.5697 7.7027 27.5346 7.7027C26.4994 7.7027 25.6023 6.95946 25.5333 5.87838V1.89189C25.6023 0.743243 26.4304 0 27.5346 0C28.5697 0 29.3978 0.810811 29.4668 1.89189V3.85135ZM42.7854 13.9189C43.9585 14.054 47.547 10.4054 47.547 8.85134C47.5186 8.80492 47.4875 8.75084 47.4537 8.69191C47.2412 8.322 46.9191 7.76097 46.4429 7.70269C45.8908 7.49999 44.9247 7.49999 44.4416 7.83783C43.2685 8.7162 42.1643 9.79728 41.1982 11.0135C40.8532 11.4189 40.8532 12.4324 41.1292 12.973C41.4052 13.4459 42.1643 13.8513 42.7854 13.9189ZM44.9937 36.4864H9.79925C9.79925 35.4253 9.79155 34.3643 9.78386 33.3057C9.76854 31.1961 9.7533 29.0966 9.79925 27.0269C9.79925 25.6756 10.0063 24.3242 10.2823 22.9729C12.1455 14.8648 19.7365 9.25668 28.4316 9.59452C36.7127 9.93235 43.9586 16.2837 44.9247 24.3918C45.2092 27.1305 45.1354 29.901 45.0613 32.6815V32.6816C45.0275 33.9485 44.9937 35.2174 44.9937 36.4864ZM25.4642 23.0405C25.1526 23.067 24.8171 23.0649 24.479 23.0627C23.0951 23.054 21.6688 23.045 21.6688 24.9999C21.6688 26.9043 22.9902 26.9267 24.291 26.9488C24.6978 26.9557 25.1026 26.9626 25.4642 27.0269C25.4913 27.3185 25.4918 27.6334 25.4924 27.9524C25.4945 29.2597 25.4968 30.6345 27.3275 30.7432C29.3905 30.7963 29.4034 29.3858 29.4159 28.025C29.4193 27.6561 29.4226 27.2908 29.4668 26.9594H30.5709C32.4341 26.9594 33.4003 26.2837 33.3312 24.9999C33.3312 23.7837 32.4341 23.108 30.6399 23.108H29.4668C29.3287 20.1351 28.9147 19.3242 27.5345 19.2567C26.1543 19.1891 25.6713 20.0675 25.4642 23.0405ZM27.5346 50.0001H6.55588C4.55463 50.0001 3.93355 49.3919 3.93355 47.4325V42.8379C3.93355 41.0136 4.62364 40.4055 6.41786 40.4055H33.8834H48.5132C50.4455 40.4055 51.0666 41.0136 51.0666 42.9055V47.5676C51.0666 49.3244 50.3765 50.0001 48.6512 50.0001H27.5346ZM3.24341 28.8664C3.47344 28.8589 3.70347 28.8514 3.9335 28.8514C4.62359 28.8514 5.24467 28.8514 5.93476 28.7838C7.0389 28.7162 7.867 27.9054 7.867 26.8919C7.867 25.8784 7.10791 25.0676 5.93476 25H1.86324C0.759097 25.0676 0 25.9459 0 26.9595C0 27.973 0.759097 28.7838 1.86324 28.8514C2.32328 28.8964 2.78333 28.8814 3.24337 28.8664H3.24341ZM51.0665 28.8514H49.1342C47.9611 28.7838 47.202 27.973 47.202 26.9595C47.202 25.9459 47.9611 25.0676 49.1342 25H53.1367C54.2409 25.0676 55.069 25.8784 55.069 26.9595C55.069 27.973 54.2409 28.7838 53.0677 28.8514H51.0665ZM14.2158 11.8919C14.3538 10.7432 10.6963 7.36485 9.0401 7.36485C8.97544 7.41233 8.88427 7.46723 8.78078 7.52954C8.4425 7.73324 7.97263 8.01618 7.86695 8.37836C7.59091 8.9189 7.65992 9.86485 8.00497 10.3378C8.90208 11.4865 9.93721 12.5 11.1104 13.3784C11.5934 13.7838 12.5595 13.8513 13.1116 13.5811C13.6637 13.3108 14.1467 12.5 14.2158 11.8919Z" fill="white"/>
</svg>
