<svg width="51" height="50" viewBox="0 0 51 50" fill="none" xmlns="http://www.w3.org/2000/svg">
<g clip-path="url(#clip0_310_158)">
<path fill-rule="evenodd" clip-rule="evenodd" d="M39.767 0C42.762 0 45.1747 2.41265 45.1747 5.40765C45.1747 8.31947 42.762 10.7321 39.767 10.7321C36.772 10.7321 34.3593 8.31947 34.3593 5.32446C34.4425 2.41265 36.8552 0 39.767 0ZM5.82362 5.82356C5.82362 5.49078 5.82362 5.2412 5.90682 5.07481C6.07321 4.32605 6.57238 3.91008 7.40432 3.91008C8.23627 3.91008 8.73544 4.40925 8.81863 5.2412C8.90183 6.57231 8.90183 7.98662 8.81863 9.31774C8.81863 10.1497 8.23627 10.6489 7.40432 10.6489C6.65557 10.6489 6.1564 10.2329 5.90682 9.48413C5.82362 9.40093 5.82362 9.15135 5.82362 8.90176C3.91015 8.56898 2.74542 9.73371 2.995 11.564C3.0782 12.0909 3.15215 12.6178 3.2261 13.1447C3.374 14.1985 3.5219 15.2523 3.74376 16.3061C4.49251 20.3826 8.06988 23.3776 12.2296 23.3776C16.3893 23.3776 20.0499 20.3826 20.7987 16.3061L21.5474 11.564C21.8802 9.65051 20.7987 8.56898 18.7188 8.73537C18.7188 8.98496 18.7188 9.23454 18.6356 9.48413C18.386 10.2329 17.8869 10.6489 17.1381 10.5657C16.3894 10.4825 15.807 10.0665 15.807 9.23454C15.7238 7.82023 15.7238 6.40592 15.807 5.07481C15.807 4.32605 16.3894 3.82689 17.1381 3.74369C17.8869 3.6605 18.386 4.15967 18.6356 4.82522C18.7188 5.07481 18.7188 5.32439 18.7188 5.57398C19.218 5.57398 19.6339 5.57398 20.1331 5.65717C22.7953 6.07314 24.792 8.40259 24.5424 11.0648C24.376 13.1447 24.0433 15.2246 23.6273 17.2212C22.3794 22.7121 17.3877 26.2895 11.7304 26.0399C6.32279 25.7903 1.74708 21.6306 0.915138 16.2229C0.665554 14.6422 0.41597 13.0615 0.24958 11.4808C-0.166393 8.3194 2.07986 5.65717 5.24126 5.57398C5.24126 5.82356 5.49085 5.82356 5.82362 5.82356ZM34.1098 11.4809C31.0316 13.8104 29.4509 16.7222 29.5341 20.5491C30.3559 20.5491 31.1777 20.5288 32.0095 20.5083C32.8619 20.4872 33.7248 20.4659 34.609 20.4659C35.2745 20.5491 35.6905 20.3827 36.0233 19.7172C37.1048 17.8869 39.3511 17.1381 41.3477 17.8869C43.3444 18.7188 44.5091 20.8819 44.0932 22.8786C43.6772 25.0416 41.7637 26.5391 39.6006 26.3728C38.0199 26.2896 36.772 25.4576 36.0233 24.0433C35.7737 23.6273 35.4409 23.4609 34.9417 23.4609H29.5341V27.7871C29.5341 29.5342 30.6988 30.7821 32.4459 30.7821C37.3544 30.7821 42.2629 30.7821 47.2546 30.9485C48.9184 30.8653 50.0832 29.6173 50.0832 27.9535C50.1664 25.208 50.1664 22.4626 50.0832 19.7172C49.9168 16.223 48.3361 13.5608 45.5075 11.5641C43.8436 12.8952 42.0133 13.7272 39.8502 13.7272C37.604 13.7272 35.7737 12.8952 34.1098 11.4809ZM47.0049 33.7771H32.4458V34.4427V45.258C32.4458 48.5026 35.1081 50.4992 38.2695 49.7505V38.852C38.2695 37.6873 38.7686 37.0217 39.6838 37.0217C40.5989 37.0217 41.1813 37.6873 41.1813 38.852V47.3379V49.9169C41.4409 49.9169 41.6804 49.9269 41.9104 49.9365C42.3438 49.9546 42.7431 49.9712 43.1779 49.9169C45.1746 49.7505 46.9217 48.0866 47.0049 46.0899C47.0602 43.3786 47.042 40.6673 47.0235 37.9315V37.9314V37.9313V37.9312V37.9306V37.9306V37.9305V37.9304V37.9304C47.0142 36.5532 47.0049 35.1698 47.0049 33.7771ZM25.4575 28.3693C25.4575 25.5407 26.7054 23.96 29.5341 23.4609C29.5341 22.4625 29.5341 21.4642 29.7004 20.549C25.7071 20.7986 22.6289 23.8768 22.6289 27.8702V42.5124C22.6289 45.0915 20.7154 47.0881 18.2196 47.0881C15.7237 47.0881 13.8103 45.0915 13.8103 42.4292V32.7787C13.8103 32.1963 13.8935 31.7803 14.3926 31.4475C15.1414 30.8652 15.6405 30.0332 15.5573 29.1181H8.98497C9.06816 30.1164 9.56733 30.9484 10.3161 31.6139C10.5657 31.8635 10.8153 32.2795 10.8153 32.6123V40.4326C10.8153 40.703 10.8101 40.9733 10.8049 41.2437C10.7893 42.0549 10.7737 42.866 10.8984 43.6772C11.3976 47.5873 14.8086 50.2495 18.7187 50C22.4625 49.7504 25.4575 46.5058 25.4575 42.5956V28.3693ZM39.767 23.3777C40.5158 23.4609 41.2645 22.7953 41.2645 21.9634C41.2645 21.2146 40.599 20.5491 39.8502 20.4659C39.1015 20.3827 38.3527 21.0483 38.3527 21.8802C38.3527 22.629 39.0183 23.3777 39.767 23.3777Z" fill="white"/>
</g>
<defs>
<clipPath id="clip0_310_158">
<rect width="50.0832" height="50" fill="white"/>
</clipPath>
</defs>
</svg>
