<svg width="48" height="48" viewBox="0 0 48 48" fill="none" xmlns="http://www.w3.org/2000/svg">
<g clip-path="url(#clip0_524_542)">
<path d="M3 16.36C2.99999 13.9183 3.66913 11.5233 4.93471 9.43517C6.2003 7.34706 8.01394 5.64571 10.1786 4.51597C12.3432 3.38624 14.7761 2.87133 17.2128 3.02719C19.6495 3.18305 21.9969 4.00371 24 5.40002" stroke="white" stroke-width="4.775" stroke-miterlimit="10"/>
<path d="M44.9996 16.36C44.9872 13.3326 43.9485 10.3988 42.0531 8.03806C40.1578 5.6773 37.5178 4.02912 34.5646 3.36278C31.6113 2.69645 28.5194 3.05136 25.794 4.36953C23.0686 5.6877 20.8707 7.8912 19.5596 10.62" stroke="white" stroke-width="4.775" stroke-miterlimit="10"/>
<path d="M45 16.36V19.2C44.998 23.7504 44.101 28.2559 42.36 32.46C40.6221 36.6568 38.0735 40.4696 34.86 43.68C34.2722 44.2711 33.5318 44.6872 32.7213 44.8821C31.9108 45.0769 31.0621 45.0428 30.2699 44.7836C29.4777 44.5244 28.773 44.0502 28.2345 43.4139C27.696 42.7776 27.3448 42.0042 27.22 41.18L26 33.08C26 32.5496 25.7893 32.0409 25.4143 31.6658C25.0392 31.2908 24.5305 31.08 24 31.08C23.4696 31.08 22.9609 31.2908 22.5858 31.6658C22.2108 32.0409 22 32.5496 22 33.08L20.76 41.18C20.6353 42.0042 20.2841 42.7776 19.7456 43.4139C19.2071 44.0502 18.5024 44.5244 17.7102 44.7836C16.9179 45.0428 16.0693 45.0769 15.2588 44.8821C14.4483 44.6872 13.7079 44.2711 13.12 43.68C9.90534 40.4663 7.35662 36.6496 5.62001 32.4487C3.8834 28.2479 2.99306 23.7457 3.00004 19.2V16.36" stroke="white" stroke-width="4.775" stroke-miterlimit="10"/>
<path d="M24 16.36H39.28" stroke="white" stroke-width="4.775" stroke-miterlimit="10"/>
<path d="M31.6396 8.72003V24" stroke="white" stroke-width="4.775" stroke-miterlimit="10"/>
</g>
<defs>
<clipPath id="clip0_524_542">
<rect width="48" height="48" fill="white"/>
</clipPath>
</defs>
</svg>
